<svg xmlns="http://www.w3.org/2000/svg" xmlns:xlink="http://www.w3.org/1999/xlink" version="1.1" width="1000" height="1000" viewBox="0 0 1000 1000" xml:space="preserve">
<desc>Created with Fabric.js 3.5.0</desc>
<defs>
</defs>
<rect x="0" y="0" width="100%" height="100%" fill="rgba(255,255,255,0)"/>
<g transform="matrix(1.3475 0 0 1.3475 500.0112 500.0031)" id="318426">
<g style="" vector-effect="non-scaling-stroke">
		<g transform="matrix(0.1333 0 0 -0.1333 -0.0843 -0.0237)">
<path style="stroke: none; stroke-width: 1; stroke-dasharray: none; stroke-linecap: butt; stroke-dashoffset: 0; stroke-linejoin: miter; stroke-miterlimit: 4; is-custom-font: none; font-file-url: none; fill: rgb(0,0,0); fill-opacity: 0.45; fill-rule: nonzero; opacity: 1;" transform=" translate(-2530, -710)" d="M 0 710 l 0 -710 l 2530 0 l 2530 0 l 0 710 l 0 710 l -2530 0 l -2530 0 l 0 -710 z m 917 623 c 49 -61 6 -162 -69 -163 c -99 -1 -141 112 -66 175 c 42 36 102 30 135 -12 z m 329 6 c 18 -17 24 -33 24 -65 c 0 -56 -7 -72 -41 -89 c -44 -23 -83 -19 -118 14 c -24 23 -31 37 -31 68 c 0 43 21 80 54 94 c 32 13 86 3 112 -22 z m 848 -246 c 7 -16 28 -65 46 -111 c 18 -46 37 -79 41 -75 c 4 4 24 49 44 100 c 20 51 43 97 50 103 c 8 6 29 10 47 8 l 33 -3 l 0 -160 l 0 -160 l -32 -3 l -33 -3 l 0 95 c 0 53 -3 96 -7 96 c -5 0 -24 -41 -42 -91 c -49 -129 -77 -132 -122 -13 c -44 120 -48 121 -49 12 l 0 -98 l -35 0 l -35 0 l 0 158 c 0 87 3 162 7 165 c 3 4 21 7 39 7 c 26 0 37 -6 48 -27 z m -1139 -97 c 25 -52 48 -97 53 -100 c 5 -3 30 40 55 95 l 46 100 l 147 -3 l 147 -3 l 54 -125 c 30 -69 76 -174 102 -235 c 171 -388 191 -438 191 -476 l 0 -39 l -132 0 l -133 1 l -79 187 c -44 103 -90 210 -102 237 c -12 28 -34 77 -49 110 l -26 60 l -29 -65 c -15 -36 -35 -82 -44 -102 l -15 -38 l -129 0 l -129 0 l -40 92 c -22 50 -44 93 -49 95 c -8 3 -78 -153 -228 -504 l -31 -73 l -132 0 l -133 0 l 0 39 c 0 34 91 262 175 436 c 8 17 42 93 75 170 c 34 77 71 161 82 188 l 22 47 l 143 0 l 144 0 l 44 -94 z m 1610 30 c 47 -20 55 -42 55 -145 l 0 -91 l -29 0 c -16 0 -31 5 -33 10 c -2 7 -16 5 -36 -6 c -78 -38 -157 41 -104 105 c 10 13 36 25 65 30 c 62 11 77 25 54 49 c -17 16 -19 16 -48 -1 c -29 -16 -79 -24 -79 -11 c 0 18 26 48 53 59 c 41 18 60 18 102 1 z m 281 -11 c 33 -21 32 -55 -2 -55 c -14 0 -32 7 -41 16 c -20 19 -57 14 -61 -9 c -4 -18 0 -20 65 -37 c 52 -13 73 -33 73 -70 c 0 -82 -169 -106 -207 -30 c -12 24 -11 25 18 28 c 19 2 38 -3 50 -13 c 12 -12 27 -15 44 -11 c 45 11 26 37 -42 58 c -67 20 -82 40 -69 92 c 12 49 116 68 172 31 z m 229 11 c 29 -12 55 -41 55 -60 c 0 -13 -55 -5 -71 10 c -12 11 -27 14 -44 10 c -44 -11 -29 -34 33 -52 c 31 -9 63 -21 70 -26 c 13 -11 16 -66 4 -84 c -11 -17 -68 -44 -92 -44 c -27 0 -92 27 -102 43 c -24 38 21 51 68 21 c 20 -14 30 -15 50 -5 c 36 16 18 36 -47 51 c -75 18 -98 63 -59 113 c 29 37 80 45 135 23 z m 283 -463 c 4 -28 -32 -50 -54 -32 c -15 12 -19 41 -7 53 c 16 15 58 1 61 -21 z m -1164 -4 c 33 -15 59 -71 51 -109 c -4 -16 -16 -41 -27 -56 l -21 -26 l 26 -54 c 15 -30 27 -57 27 -59 c 0 -3 -15 -5 -34 -5 c -31 0 -37 5 -65 55 c -25 44 -36 55 -56 55 c -24 0 -25 -3 -25 -55 l 0 -55 l -35 0 l -35 0 l 0 160 l 0 160 l 85 0 c 46 0 95 -5 109 -11 z m 1304 -41 c 2 -20 9 -28 23 -28 c 14 0 19 -7 19 -25 c 0 -18 -5 -25 -20 -25 c -18 0 -20 -7 -20 -70 c 0 -56 3 -70 15 -70 c 9 0 19 -10 24 -22 c 10 -27 -10 -39 -49 -31 c -50 11 -60 30 -60 113 c 0 69 -2 78 -20 83 c -11 3 -20 10 -20 16 c 0 6 9 19 20 28 c 11 10 20 28 20 41 c 0 20 4 23 33 20 c 27 -2 33 -8 35 -30 z m 1134 5 c 2 -20 9 -29 26 -31 c 16 -2 22 -10 22 -27 c 0 -17 -6 -25 -22 -27 c -21 -3 -23 -9 -26 -66 c -3 -59 -2 -63 23 -72 c 31 -12 34 -45 4 -53 c -24 -6 -70 8 -81 26 c -4 7 -8 44 -8 84 c 0 62 -3 74 -20 83 c -11 6 -20 19 -20 30 c 0 10 9 22 20 25 c 13 4 20 15 20 31 c 0 20 5 24 29 24 c 25 0 30 -4 33 -27 z m -3546 -39 c -4 -14 -22 -58 -40 -97 l -34 -72 l -41 88 c -23 48 -41 92 -41 97 c 0 6 35 10 81 10 l 81 0 l -6 -26 z m 1384 -13 c 26 -19 54 -85 46 -108 c -4 -9 -29 -13 -86 -13 c -64 0 -80 -3 -80 -15 c 0 -8 12 -22 26 -32 c 25 -16 28 -16 56 0 c 35 20 78 22 78 4 c 0 -8 -11 -24 -25 -37 c -19 -18 -37 -24 -73 -24 c -61 -1 -97 17 -117 59 c -58 123 69 244 175 166 z m 250 14 c 31 -16 60 -51 60 -72 c 0 -22 -58 -16 -70 7 c -13 24 -47 26 -72 3 c -23 -20 -24 -85 -2 -107 c 22 -22 61 -20 74 4 c 11 21 54 28 65 11 c 11 -18 -18 -60 -52 -76 c -62 -30 -140 -1 -164 62 c -24 65 5 143 64 168 c 42 18 62 18 97 0 z m 250 -15 c 0 -23 -4 -30 -20 -30 c -42 0 -60 -34 -60 -115 l 0 -75 l -35 0 l -36 0 l 3 118 l 3 117 l 29 3 c 16 2 32 -2 36 -9 c 6 -9 13 -8 31 5 c 35 24 49 20 49 -14 z m 793 10 l 25 -20 l 35 20 c 39 23 75 20 101 -9 c 16 -18 28 -140 18 -193 c -4 -23 -10 -28 -33 -28 l -29 0 l 0 76 c 0 82 -11 114 -38 114 c -34 0 -42 -22 -42 -107 l 0 -83 l -35 0 l -34 0 l -3 86 c -2 68 -7 89 -20 97 c -12 8 -21 7 -32 -2 c -12 -10 -16 -33 -16 -97 l 0 -84 l -35 0 l -35 0 l 0 120 l 0 120 l 29 0 c 16 0 31 -5 33 -11 c 2 -6 14 -5 33 5 c 39 21 47 20 78 -4 z m 391 6 c 44 -18 66 -51 66 -98 l 0 -38 l -80 0 c -57 0 -80 -4 -80 -12 c 1 -38 43 -54 84 -33 c 30 16 76 20 76 7 c 0 -21 -35 -53 -68 -63 c -87 -26 -162 28 -162 116 c 0 52 17 84 59 112 c 39 27 59 28 105 9 z m 296 -1 c 36 -18 40 -34 43 -148 l 2 -87 l -32 0 l -33 0 l 0 68 c 0 88 -7 111 -36 118 c -43 11 -54 -10 -54 -102 l 0 -84 l -35 0 l -35 0 l 0 120 l 0 120 l 29 0 c 16 0 31 -5 33 -11 c 3 -8 13 -7 33 4 c 38 20 49 21 85 2 z m -1370 -78 c 0 -85 8 -107 41 -107 c 37 0 49 28 49 111 l 0 79 l 30 0 l 30 0 l 0 -120 l 0 -120 l -30 0 c -21 0 -30 5 -30 17 c 0 15 -1 15 -18 0 c -20 -18 -65 -24 -98 -14 c -32 11 -44 50 -44 147 l 0 90 l 35 0 l 35 0 l 0 -83 z m 280 -37 l 0 -120 l -35 0 l -35 0 l 0 120 l 0 120 l 35 0 l 35 0 l 0 -120 z" stroke-linecap="round"/>
</g>
		<g transform="matrix(0.1333 0 0 -0.1333 -2.7288 -20.545)">
<path style="stroke: none; stroke-width: 1; stroke-dasharray: none; stroke-linecap: butt; stroke-dashoffset: 0; stroke-linejoin: miter; stroke-miterlimit: 4; is-custom-font: none; font-file-url: none; fill: rgb(0,0,0); fill-opacity: 0.45; fill-rule: nonzero; opacity: 1;" transform=" translate(-2509.5438, -864.0786)" d="M 2503 889 c -36 -10 -46 -45 -17 -56 c 27 -10 64 14 64 42 c 0 27 0 27 -47 14 z" stroke-linecap="round"/>
</g>
		<g transform="matrix(0.1333 0 0 -0.1333 -54.6683 31.9984)">
<path style="stroke: none; stroke-width: 1; stroke-dasharray: none; stroke-linecap: butt; stroke-dashoffset: 0; stroke-linejoin: miter; stroke-miterlimit: 4; is-custom-font: none; font-file-url: none; fill: rgb(0,0,0); fill-opacity: 0.45; fill-rule: nonzero; opacity: 1;" transform=" translate(-2120, -470)" d="M 2070 470 l 0 -50 l 38 0 c 45 0 62 14 62 52 c 0 32 -24 48 -69 48 c -30 0 -31 -1 -31 -50 z" stroke-linecap="round"/>
</g>
		<g transform="matrix(0.1333 0 0 -0.1333 -17.2273 37.9992)">
<path style="stroke: none; stroke-width: 1; stroke-dasharray: none; stroke-linecap: butt; stroke-dashoffset: 0; stroke-linejoin: miter; stroke-miterlimit: 4; is-custom-font: none; font-file-url: none; fill: rgb(0,0,0); fill-opacity: 0.45; fill-rule: nonzero; opacity: 1;" transform=" translate(-2400.8075, -425)" d="M 2372 434 c -34 -24 -26 -34 28 -34 c 28 0 50 4 50 9 c 0 10 -39 41 -50 41 c -3 0 -16 -7 -28 -16 z" stroke-linecap="round"/>
</g>
		<g transform="matrix(0.1333 0 0 -0.1333 210.6313 38.3739)">
<path style="stroke: none; stroke-width: 1; stroke-dasharray: none; stroke-linecap: butt; stroke-dashoffset: 0; stroke-linejoin: miter; stroke-miterlimit: 4; is-custom-font: none; font-file-url: none; fill: rgb(0,0,0); fill-opacity: 0.45; fill-rule: nonzero; opacity: 1;" transform=" translate(-4109.7466, -422.1897)" d="M 4091 437 c -45 -22 -37 -37 19 -37 c 54 0 62 11 24 36 c -15 11 -24 11 -43 1 z" stroke-linecap="round"/>
</g>
</g>
</g>
</svg>