<?xml version="1.0" encoding="UTF-8"?>
<svg xmlns="http://www.w3.org/2000/svg" xmlns:xlink="http://www.w3.org/1999/xlink" width="120px" height="120px" viewBox="0 0 120 120" version="1.1">
<g id="surface1">
<path style=" stroke:none;fill-rule:nonzero;fill:rgb(0%,0%,0%);fill-opacity:0.2;" d="M 5.453125 59.957031 L 5.453125 75.371094 L 114.460938 75.371094 L 114.460938 44.546875 L 5.453125 44.546875 Z M 25.210938 46.433594 C 26.265625 47.757812 25.335938 49.949219 23.722656 49.972656 C 21.589844 49.992188 20.683594 47.542969 22.300781 46.171875 C 23.207031 45.390625 24.5 45.523438 25.210938 46.433594 Z M 32.296875 46.304688 C 32.683594 46.671875 32.8125 47.019531 32.8125 47.714844 C 32.8125 48.929688 32.664062 49.277344 31.933594 49.644531 C 30.984375 50.144531 30.140625 50.058594 29.390625 49.34375 C 28.871094 48.84375 28.722656 48.539062 28.722656 47.867188 C 28.722656 46.933594 29.171875 46.128906 29.882812 45.828125 C 30.570312 45.542969 31.738281 45.761719 32.296875 46.304688 Z M 50.566406 51.644531 C 50.714844 51.992188 51.167969 53.054688 51.554688 54.050781 C 51.941406 55.050781 52.351562 55.765625 52.441406 55.683594 C 52.523438 55.59375 52.953125 54.617188 53.386719 53.507812 C 53.816406 52.402344 54.3125 51.40625 54.464844 51.273438 C 54.632812 51.144531 55.089844 51.058594 55.476562 51.101562 L 56.1875 51.164062 L 56.1875 58.109375 L 55.496094 58.179688 L 54.789062 58.242188 L 54.789062 56.179688 C 54.789062 55.027344 54.722656 54.09375 54.632812 54.09375 C 54.527344 54.09375 54.121094 54.984375 53.734375 56.074219 C 52.675781 58.871094 52.074219 58.933594 51.105469 56.351562 C 50.15625 53.75 50.066406 53.730469 50.046875 56.09375 L 50.046875 58.222656 L 48.539062 58.222656 L 48.539062 54.789062 C 48.539062 52.902344 48.605469 51.273438 48.691406 51.207031 C 48.753906 51.121094 49.144531 51.058594 49.53125 51.058594 C 50.089844 51.058594 50.328125 51.1875 50.566406 51.644531 Z M 26.027344 53.75 C 26.566406 54.875 27.0625 55.855469 27.167969 55.917969 C 27.277344 55.984375 27.816406 55.050781 28.355469 53.855469 L 29.347656 51.6875 L 32.511719 51.75 L 35.679688 51.816406 L 36.84375 54.53125 C 37.488281 56.027344 38.480469 58.304688 39.039062 59.628906 C 42.722656 68.054688 43.152344 69.136719 43.152344 69.964844 L 43.152344 70.808594 L 40.308594 70.808594 L 37.445312 70.789062 L 35.742188 66.730469 C 34.792969 64.492188 33.804688 62.167969 33.546875 61.582031 C 33.289062 60.976562 32.8125 59.914062 32.488281 59.199219 L 31.933594 57.894531 L 31.308594 59.304688 C 30.984375 60.085938 30.550781 61.085938 30.359375 61.519531 L 30.035156 62.34375 L 24.476562 62.34375 L 23.613281 60.347656 C 23.140625 59.261719 22.667969 58.328125 22.558594 58.285156 C 22.386719 58.222656 20.878906 61.605469 17.648438 69.226562 L 16.976562 70.808594 L 11.269531 70.808594 L 11.269531 69.964844 C 11.269531 69.226562 13.230469 64.277344 15.042969 60.5 C 15.214844 60.132812 15.945312 58.480469 16.660156 56.808594 C 17.390625 55.136719 18.183594 53.3125 18.421875 52.726562 L 18.894531 51.707031 L 25.078125 51.707031 Z M 60.710938 53.097656 C 61.722656 53.535156 61.898438 54.007812 61.898438 56.246094 L 61.898438 58.222656 L 61.273438 58.222656 C 60.925781 58.222656 60.605469 58.109375 60.5625 58.003906 C 60.519531 57.851562 60.21875 57.894531 59.785156 58.132812 C 58.105469 58.960938 56.402344 57.246094 57.542969 55.855469 C 57.757812 55.570312 58.320312 55.3125 58.945312 55.203125 C 60.28125 54.964844 60.605469 54.660156 60.105469 54.140625 C 59.742188 53.792969 59.699219 53.792969 59.074219 54.160156 C 58.449219 54.511719 57.371094 54.679688 57.371094 54.398438 C 57.371094 54.007812 57.933594 53.359375 58.511719 53.117188 C 59.398438 52.726562 59.804688 52.726562 60.710938 53.097656 Z M 66.765625 53.339844 C 67.476562 53.792969 67.453125 54.53125 66.722656 54.53125 C 66.421875 54.53125 66.035156 54.378906 65.839844 54.183594 C 65.410156 53.769531 64.609375 53.878906 64.523438 54.378906 C 64.4375 54.769531 64.523438 54.8125 65.921875 55.179688 C 67.046875 55.464844 67.496094 55.898438 67.496094 56.699219 C 67.496094 58.480469 63.855469 59.003906 63.035156 57.351562 C 62.78125 56.832031 62.800781 56.808594 63.425781 56.742188 C 63.835938 56.699219 64.242188 56.808594 64.503906 57.027344 C 64.761719 57.285156 65.085938 57.351562 65.453125 57.265625 C 66.421875 57.027344 66.011719 56.464844 64.546875 56.003906 C 63.105469 55.570312 62.78125 55.136719 63.058594 54.007812 C 63.316406 52.945312 65.558594 52.53125 66.765625 53.339844 Z M 71.699219 53.097656 C 72.324219 53.359375 72.882812 53.988281 72.882812 54.398438 C 72.882812 54.679688 71.699219 54.511719 71.351562 54.183594 C 71.09375 53.945312 70.769531 53.878906 70.40625 53.964844 C 69.457031 54.203125 69.78125 54.707031 71.117188 55.097656 C 71.78125 55.292969 72.472656 55.550781 72.625 55.660156 C 72.90625 55.898438 72.96875 57.089844 72.710938 57.480469 C 72.472656 57.851562 71.246094 58.4375 70.726562 58.4375 C 70.144531 58.4375 68.746094 57.851562 68.53125 57.503906 C 68.015625 56.679688 68.984375 56.394531 69.996094 57.050781 C 70.425781 57.351562 70.644531 57.371094 71.074219 57.15625 C 71.847656 56.808594 71.460938 56.375 70.0625 56.050781 C 68.445312 55.660156 67.949219 54.679688 68.789062 53.597656 C 69.414062 52.792969 70.511719 52.621094 71.699219 53.097656 Z M 77.796875 63.144531 C 77.878906 63.753906 77.105469 64.234375 76.628906 63.84375 C 76.308594 63.582031 76.222656 62.949219 76.480469 62.691406 C 76.824219 62.363281 77.730469 62.671875 77.796875 63.144531 Z M 52.71875 63.234375 C 53.429688 63.558594 53.988281 64.777344 53.816406 65.601562 C 53.734375 65.949219 53.472656 66.492188 53.234375 66.816406 L 52.785156 67.378906 L 53.34375 68.550781 C 53.664062 69.203125 53.925781 69.789062 53.925781 69.832031 C 53.925781 69.898438 53.601562 69.941406 53.191406 69.941406 C 52.523438 69.941406 52.398438 69.832031 51.792969 68.746094 C 51.253906 67.792969 51.015625 67.554688 50.585938 67.554688 C 50.066406 67.554688 50.046875 67.617188 50.046875 68.746094 L 50.046875 69.941406 L 48.539062 69.941406 L 48.539062 62.996094 L 50.371094 62.996094 C 51.359375 62.996094 52.417969 63.105469 52.71875 63.234375 Z M 80.808594 64.121094 C 80.851562 64.558594 81.003906 64.730469 81.308594 64.730469 C 81.609375 64.730469 81.714844 64.882812 81.714844 65.273438 C 81.714844 65.664062 81.609375 65.816406 81.285156 65.816406 C 80.894531 65.816406 80.851562 65.96875 80.851562 67.335938 C 80.851562 68.550781 80.917969 68.855469 81.175781 68.855469 C 81.371094 68.855469 81.585938 69.074219 81.695312 69.332031 C 81.90625 69.917969 81.476562 70.179688 80.640625 70.007812 C 79.558594 69.769531 79.347656 69.355469 79.347656 67.554688 C 79.347656 66.054688 79.300781 65.859375 78.914062 65.753906 C 78.679688 65.683594 78.484375 65.535156 78.484375 65.40625 C 78.484375 65.273438 78.679688 64.992188 78.914062 64.796875 C 79.152344 64.582031 79.347656 64.191406 79.347656 63.90625 C 79.347656 63.472656 79.433594 63.410156 80.058594 63.472656 C 80.640625 63.515625 80.765625 63.648438 80.808594 64.121094 Z M 105.238281 64.015625 C 105.28125 64.449219 105.433594 64.644531 105.800781 64.6875 C 106.144531 64.730469 106.277344 64.902344 106.277344 65.273438 C 106.277344 65.644531 106.144531 65.816406 105.800781 65.859375 C 105.347656 65.925781 105.304688 66.054688 105.238281 67.292969 C 105.175781 68.574219 105.195312 68.660156 105.734375 68.855469 C 106.402344 69.117188 106.46875 69.832031 105.820312 70.007812 C 105.304688 70.136719 104.3125 69.832031 104.078125 69.441406 C 103.988281 69.289062 103.902344 68.488281 103.902344 67.617188 C 103.902344 66.269531 103.839844 66.011719 103.472656 65.816406 C 103.234375 65.683594 103.042969 65.40625 103.042969 65.167969 C 103.042969 64.949219 103.234375 64.6875 103.472656 64.625 C 103.753906 64.535156 103.902344 64.296875 103.902344 63.949219 C 103.902344 63.515625 104.011719 63.429688 104.527344 63.429688 C 105.066406 63.429688 105.175781 63.515625 105.238281 64.015625 Z M 28.847656 64.863281 C 28.765625 65.167969 28.378906 66.121094 27.988281 66.96875 L 27.253906 68.53125 L 26.371094 66.621094 C 25.878906 65.578125 25.488281 64.625 25.488281 64.511719 C 25.488281 64.386719 26.242188 64.296875 27.234375 64.296875 L 28.976562 64.296875 Z M 58.664062 65.144531 C 59.226562 65.558594 59.828125 66.988281 59.65625 67.488281 C 59.570312 67.683594 59.03125 67.769531 57.800781 67.769531 C 56.425781 67.769531 56.078125 67.835938 56.078125 68.097656 C 56.078125 68.269531 56.339844 68.574219 56.640625 68.792969 C 57.175781 69.136719 57.246094 69.136719 57.84375 68.792969 C 58.601562 68.355469 59.527344 68.3125 59.527344 68.703125 C 59.527344 68.878906 59.289062 69.226562 58.988281 69.507812 C 58.578125 69.898438 58.1875 70.027344 57.414062 70.027344 C 56.101562 70.050781 55.328125 69.660156 54.894531 68.746094 C 53.644531 66.074219 56.382812 63.453125 58.664062 65.144531 Z M 64.046875 64.839844 C 64.71875 65.1875 65.339844 65.949219 65.339844 66.402344 C 65.339844 66.882812 64.09375 66.75 63.835938 66.25 C 63.554688 65.730469 62.824219 65.683594 62.285156 66.1875 C 61.789062 66.621094 61.765625 68.03125 62.242188 68.507812 C 62.714844 68.988281 63.554688 68.941406 63.835938 68.421875 C 64.074219 67.964844 64.996094 67.8125 65.234375 68.183594 C 65.472656 68.574219 64.847656 69.484375 64.117188 69.832031 C 62.78125 70.484375 61.097656 69.855469 60.582031 68.488281 C 60.0625 67.078125 60.6875 65.382812 61.960938 64.839844 C 62.867188 64.449219 63.296875 64.449219 64.046875 64.839844 Z M 69.4375 65.167969 C 69.4375 65.664062 69.351562 65.816406 69.007812 65.816406 C 68.101562 65.816406 67.714844 66.554688 67.714844 68.3125 L 67.714844 69.941406 L 66.183594 69.941406 L 66.246094 67.378906 L 66.3125 64.839844 L 66.9375 64.777344 C 67.28125 64.730469 67.625 64.820312 67.714844 64.972656 C 67.839844 65.167969 67.992188 65.144531 68.382812 64.863281 C 69.132812 64.339844 69.4375 64.429688 69.4375 65.167969 Z M 86.519531 64.949219 L 87.054688 65.382812 L 87.8125 64.949219 C 88.652344 64.449219 89.429688 64.511719 89.984375 65.144531 C 90.332031 65.535156 90.589844 68.183594 90.375 69.332031 C 90.289062 69.832031 90.160156 69.941406 89.664062 69.941406 L 89.039062 69.941406 L 89.039062 68.292969 C 89.039062 66.511719 88.804688 65.816406 88.222656 65.816406 C 87.488281 65.816406 87.316406 66.296875 87.316406 68.140625 L 87.316406 69.941406 L 85.832031 69.941406 L 85.765625 68.074219 C 85.722656 66.597656 85.613281 66.144531 85.335938 65.96875 C 85.074219 65.796875 84.882812 65.816406 84.644531 66.011719 C 84.386719 66.230469 84.300781 66.730469 84.300781 68.117188 L 84.300781 69.941406 L 82.792969 69.941406 L 82.792969 64.730469 L 83.417969 64.730469 C 83.761719 64.730469 84.085938 64.839844 84.125 64.972656 C 84.167969 65.097656 84.429688 65.078125 84.839844 64.863281 C 85.679688 64.40625 85.851562 64.429688 86.519531 64.949219 Z M 94.945312 64.820312 C 95.890625 65.210938 96.363281 65.925781 96.363281 66.945312 L 96.363281 67.769531 L 94.640625 67.769531 C 93.414062 67.769531 92.914062 67.859375 92.914062 68.03125 C 92.9375 68.855469 93.84375 69.203125 94.726562 68.746094 C 95.375 68.398438 96.363281 68.3125 96.363281 68.59375 C 96.363281 69.050781 95.609375 69.746094 94.898438 69.964844 C 93.027344 70.527344 91.410156 69.355469 91.410156 67.445312 C 91.410156 66.316406 91.777344 65.621094 92.679688 65.015625 C 93.519531 64.429688 93.953125 64.40625 94.945312 64.820312 Z M 101.316406 64.839844 C 102.097656 65.230469 102.179688 65.578125 102.246094 68.054688 L 102.289062 69.941406 L 100.886719 69.941406 L 100.886719 68.464844 C 100.886719 66.554688 100.734375 66.054688 100.113281 65.90625 C 99.1875 65.664062 98.949219 66.121094 98.949219 68.117188 L 98.949219 69.941406 L 97.441406 69.941406 L 97.441406 64.730469 L 98.066406 64.730469 C 98.410156 64.730469 98.734375 64.839844 98.773438 64.972656 C 98.84375 65.144531 99.054688 65.125 99.488281 64.882812 C 100.304688 64.449219 100.542969 64.429688 101.316406 64.839844 Z M 71.804688 66.535156 C 71.804688 68.378906 71.976562 68.855469 72.6875 68.855469 C 73.488281 68.855469 73.742188 68.25 73.742188 66.445312 L 73.742188 64.730469 L 75.035156 64.730469 L 75.035156 69.941406 L 74.390625 69.941406 C 73.9375 69.941406 73.742188 69.832031 73.742188 69.574219 C 73.742188 69.246094 73.722656 69.246094 73.355469 69.574219 C 72.925781 69.964844 71.957031 70.09375 71.246094 69.875 C 70.558594 69.636719 70.296875 68.792969 70.296875 66.6875 L 70.296875 64.730469 L 71.804688 64.730469 Z M 77.835938 67.335938 L 77.835938 69.941406 L 76.328125 69.941406 L 76.328125 64.730469 L 77.835938 64.730469 Z M 77.835938 67.335938 "/>
<path style=" stroke:none;fill-rule:nonzero;fill:rgb(0%,0%,0%);fill-opacity:0.2;" d="M 59.375 56.074219 C 58.601562 56.289062 58.382812 57.050781 59.007812 57.285156 C 59.59375 57.503906 60.386719 56.980469 60.386719 56.375 C 60.386719 55.789062 60.386719 55.789062 59.375 56.074219 Z M 59.375 56.074219 "/>
<path style=" stroke:none;fill-rule:nonzero;fill:rgb(0%,0%,0%);fill-opacity:0.2;" d="M 50.046875 65.167969 L 50.046875 66.25 L 50.867188 66.25 C 51.835938 66.25 52.203125 65.949219 52.203125 65.125 C 52.203125 64.429688 51.683594 64.082031 50.714844 64.082031 C 50.066406 64.082031 50.046875 64.101562 50.046875 65.167969 Z M 50.046875 65.167969 "/>
<path style=" stroke:none;fill-rule:nonzero;fill:rgb(0%,0%,0%);fill-opacity:0.2;" d="M 56.550781 65.949219 C 55.820312 66.46875 55.996094 66.6875 57.15625 66.6875 C 57.757812 66.6875 58.234375 66.597656 58.234375 66.492188 C 58.234375 66.273438 57.394531 65.601562 57.15625 65.601562 C 57.09375 65.601562 56.8125 65.753906 56.550781 65.949219 Z M 56.550781 65.949219 "/>
<path style=" stroke:none;fill-rule:nonzero;fill:rgb(0%,0%,0%);fill-opacity:0.2;" d="M 93.582031 65.878906 C 92.613281 66.359375 92.789062 66.6875 93.996094 66.6875 C 95.15625 66.6875 95.332031 66.445312 94.511719 65.90625 C 94.1875 65.664062 93.996094 65.664062 93.582031 65.878906 Z M 93.582031 65.878906 "/>
</g>
</svg>
